<svg class="img-fluid" id="outputsvg" xmlns="http://www.w3.org/2000/svg" style="transform: matrix(1.11388, 0, 0, 1.11388, 1.36121, 3.42896); transform-origin: 50% 50%; cursor: move; max-height: 321.94px; transition: none 0s ease 0s;" width="784" height="1224" viewBox="0 0 7840 12240"><g id="l4BZpURSaRYZTFYuSQUfRos" fill="rgb(121,198,239)" style="transform: none;"><g style="transform: none;"><path id="pRwBHCrba" d="M 2495 11288 c -303 -41 -562 -140 -813 -310 -296 -200 -538 -501 -670 -833 -50 -126 -62 -162 -62 -182 0 -12 -8 -44 -19 -70 -10 -26 -21 -87 -25 -135 -3 -48 -11 -99 -17 -115 -6 -15 -13 -77 -16 -138 -4 -87 -1 -133 16 -220 11 -60 21 -132 21 -158 0 -26 7 -64 16 -85 8 -20 19 -57 24 -82 5 -25 18 -70 29 -100 15 -39 19 -67 15 -97 l -6 -43 1523 -1 c 854 0 1546 -4 1574 -9 28 -5 94 -16 148 -25 279 -44 610 -203 856 -412 178 -151 351 -373 457 -588 43 -87 50 -96 73 -93 l 26 3 0 1855 0 1855 -1505 1 c -1435 2 -1512 1 -1645 -18 z "></path></g></g><g id="l2luVC8FbzSVubcZHyCFMDh" fill="rgb(99,177,239)" style="transform: none;"><g style="transform: none;"><path id="p2YSKpiKu" d="M 990 8705 c 0 -60 4 -76 37 -134 20 -36 40 -67 45 -69 4 -2 8 -12 8 -23 0 -10 5 -19 10 -19 6 0 10 -5 10 -10 0 -6 8 -20 18 -31 11 -10 25 -32 33 -47 8 -15 16 -29 19 -32 3 -3 14 -18 24 -35 11 -16 36 -45 58 -63 21 -19 38 -38 38 -44 0 -5 12 -19 26 -30 14 -12 30 -31 35 -44 5 -14 20 -28 33 -34 13 -5 36 -25 51 -44 15 -20 33 -36 39 -36 7 0 29 -18 50 -40 101 -107 407 -270 621 -331 260 -74 140 -70 1912 -72 l 1590 -2 0 28 c 0 15 -6 27 -12 27 -6 0 -33 43 -59 96 -106 214 -279 436 -457 587 -246 209 -577 368 -856 412 -54 9 -120 20 -148 25 -28 5 -720 9 -1575 9 -1173 1 -1529 4 -1538 13 -9 9 -12 -3 -12 -57 z "></path></g></g><g id="l1QB6GEBhSJeSo9hqqbesDR" fill="rgb(153,122,236)" style="transform: none;"><g style="transform: none;"><path id="pBfg965Dx" d="M 987 6952 c -11 -2878 -9 -4288 5 -4300 9 -6 543 -9 1578 -8 1425 2 1571 4 1630 19 36 9 77 17 92 17 16 0 54 8 85 19 32 10 76 23 98 29 128 33 330 130 460 220 44 31 99 69 123 85 50 34 293 274 325 321 12 18 43 62 70 97 26 34 47 66 47 71 0 4 10 22 22 40 26 38 86 159 116 233 62 155 82 229 119 425 24 130 24 454 0 553 -9 38 -17 82 -17 98 0 16 -9 55 -20 86 -11 32 -20 67 -20 78 0 11 -9 38 -20 60 -11 22 -20 45 -20 53 0 13 -37 97 -95 213 -18 36 -62 108 -97 158 -34 51 -72 107 -83 124 -10 18 -23 34 -27 35 -15 7 -8 43 17 80 14 20 43 62 65 92 205 282 323 660 324 1040 1 161 -20 361 -46 435 -5 17 -15 55 -22 85 -7 30 -18 65 -24 77 -7 12 -16 39 -20 60 -7 36 -11 38 -52 45 -25 4 -736 7 -1580 7 -1332 0 -1544 2 -1605 16 -38 8 -79 15 -90 15 -22 0 -115 27 -250 73 -176 61 -439 210 -521 297 -21 22 -43 40 -50 40 -6 0 -23 16 -38 35 -14 19 -39 40 -54 48 -15 7 -26 18 -25 24 1 6 -13 25 -32 41 -18 17 -32 32 -29 35 2 2 -12 20 -33 38 -21 19 -39 38 -40 43 -1 4 -10 14 -20 22 -10 7 -14 14 -9 14 5 0 0 8 -10 18 -11 9 -25 29 -33 44 -8 15 -22 37 -33 47 -10 11 -18 25 -18 31 0 5 -4 10 -10 10 -5 0 -10 9 -10 19 0 11 -4 21 -10 23 -5 2 -31 47 -58 100 l -49 97 -6 -1777 z  m 3194 -640 c 20 -7 69 -18 110 -26 41 -7 88 -18 104 -24 17 -6 62 -21 100 -33 78 -24 228 -93 320 -147 221 -129 442 -323 467 -406 7 -23 51 -97 97 -166 47 -69 109 -174 139 -235 29 -60 59 -121 67 -135 7 -14 16 -41 20 -60 4 -19 13 -44 21 -55 7 -11 16 -42 20 -70 3 -27 12 -61 19 -75 7 -14 15 -54 19 -90 14 -139 29 -222 42 -235 19 -19 20 -155 1 -155 -15 0 -31 -79 -43 -205 -4 -38 -12 -81 -19 -95 -7 -14 -16 -47 -20 -75 -4 -27 -13 -61 -20 -75 -16 -32 -55 -133 -55 -143 0 -10 -53 -117 -83 -169 -12 -21 -37 -63 -56 -95 -102 -175 -323 -403 -516 -532 -186 -124 -432 -240 -545 -257 -25 -4 -56 -12 -70 -19 -14 -7 -59 -16 -100 -20 -41 -4 -111 -13 -155 -21 -66 -12 -341 -14 -1552 -14 l -1473 0 0 1818 c 0 1000 3 1822 7 1826 4 3 707 5 1562 4 1198 -3 1564 -6 1592 -16 z "></path></g></g><g id="l4Ak8p4Kl8hJBpkg71qCqgD" fill="rgb(156,216,103)" style="transform: none;"><g style="transform: none;"><path id="pM96LzYYm" d="M 5691 2950 c -120 -13 -127 -21 -142 -175 -12 -133 -6 -314 16 -415 7 -36 16 -88 20 -117 3 -28 12 -64 20 -80 8 -15 15 -39 15 -53 0 -14 9 -42 20 -63 11 -20 20 -43 20 -50 0 -20 90 -194 132 -257 141 -208 375 -389 608 -468 172 -58 196 -65 265 -73 39 -5 93 -13 120 -19 63 -14 327 -18 419 -7 89 11 111 32 123 113 12 90 9 392 -6 442 -6 23 -16 77 -21 120 -5 42 -16 91 -24 107 -9 17 -16 41 -16 55 0 14 -9 42 -20 63 -11 20 -20 43 -20 51 0 16 -83 180 -122 241 -71 111 -251 289 -362 358 -29 17 -61 38 -72 45 -46 30 -146 69 -320 125 -29 10 -74 20 -100 23 -27 3 -80 12 -119 19 -91 18 -327 26 -434 15 z "></path></g></g><g id="lEL8TiOqpMox7LyRc0T84L" fill="rgb(130,91,234)" style="transform: none;"><g style="transform: none;"><path id="p1Dafi5491" d="M 997 6354 c -4 -4 -7 -17 -7 -28 l 0 -21 1477 3 c 1022 2 1500 -1 1548 -8 39 -6 115 -17 170 -25 55 -7 118 -20 140 -29 22 -8 51 -15 65 -16 14 0 37 -6 52 -14 15 -8 42 -17 60 -21 18 -4 49 -16 68 -26 19 -11 40 -19 46 -19 11 0 101 -45 169 -85 22 -13 54 -31 70 -40 31 -16 66 -41 158 -112 68 -52 225 -200 238 -224 8 -16 -6 -33 -83 -110 -134 -132 -299 -249 -458 -326 -129 -62 -155 -73 -167 -73 -7 0 -32 -9 -55 -19 -62 -28 -174 -56 -318 -81 -124 -21 -136 -21 -1653 -18 l -1527 3 0 -1207 0 -1208 1503 0 c 1237 0 1516 2 1582 14 44 8 114 17 155 21 41 4 86 13 100 20 14 7 45 15 70 19 113 17 359 133 545 257 193 129 414 357 516 532 19 32 44 74 56 95 30 52 83 159 83 169 0 10 39 111 55 143 7 14 16 48 20 75 4 28 13 61 20 75 7 14 15 57 19 95 12 126 28 205 43 205 19 0 19 196 -1 215 -13 13 -28 96 -42 235 -4 36 -12 76 -19 90 -7 14 -16 48 -19 75 -4 28 -13 59 -20 70 -8 11 -17 36 -21 55 -4 19 -13 46 -20 60 -8 14 -38 75 -67 135 -30 61 -92 166 -139 235 -46 69 -90 143 -97 166 -25 83 -246 277 -467 406 -92 54 -242 123 -320 147 -38 12 -83 27 -100 33 -16 6 -63 17 -104 24 -41 8 -90 19 -110 26 -28 10 -400 13 -1622 16 -872 1 -1588 -1 -1592 -4 z "></path></g></g><g id="l5eSol25M9RcYXUVI0Qv8jO" fill="rgb(114,71,234)" style="transform: none;"><g style="transform: none;"><path id="ppshP5MFA" d="M 995 6328 c -3 -7 -4 -301 -3 -653 l 3 -640 1540 -3 c 1527 -3 1541 -2 1665 18 143 25 256 53 318 81 23 10 48 19 55 19 6 0 30 8 52 19 267 124 410 220 578 385 74 74 97 103 97 123 0 49 -285 308 -415 378 -16 9 -48 27 -70 40 -68 40 -158 85 -169 85 -6 0 -27 8 -46 19 -19 10 -50 22 -68 26 -18 4 -45 13 -60 21 -15 8 -38 14 -52 14 -14 1 -43 8 -65 16 -22 9 -85 22 -140 29 -55 8 -129 18 -165 24 -102 17 -3049 15 -3055 -1 z "></path></g></g></svg>